<svg width="27" height="27" viewBox="0 0 27 27" fill="none" xmlns="http://www.w3.org/2000/svg">
<path d="M13.5 0.540039C6.34228 0.540039 0.539978 6.34234 0.539978 13.5C0.539978 20.6577 6.34228 26.46 13.5 26.46C20.6577 26.46 26.46 20.6577 26.46 13.5C26.46 6.34234 20.6577 0.540039 13.5 0.540039ZM10.3275 18.8717H7.70308V10.4261H10.3275V18.8717ZM8.99908 9.38929C8.17018 9.38929 7.63423 8.80204 7.63423 8.07574C7.63423 7.33459 8.18638 6.76489 9.03283 6.76489C9.87928 6.76489 10.3977 7.33459 10.4139 8.07574C10.4139 8.80204 9.87928 9.38929 8.99908 9.38929ZM19.9125 18.8717H17.2881V14.1912C17.2881 13.1018 16.9074 12.362 15.9583 12.362C15.2334 12.362 14.8027 12.8628 14.6124 13.3448C14.5422 13.5162 14.5246 13.7592 14.5246 14.0009V18.8703H11.8989V13.1193C11.8989 12.065 11.8651 11.1834 11.83 10.4247H14.1102L14.2303 11.5979H14.283C14.6286 11.0471 15.475 10.2344 16.8912 10.2344C18.6178 10.2344 19.9125 11.3913 19.9125 13.878V18.8717Z" fill="#D14A84"/>
</svg>
