<svg width="34" height="34" viewBox="0 0 34 34" fill="none" xmlns="http://www.w3.org/2000/svg">
<path d="M30.5339 5.66669C30.4052 5.65342 30.2754 5.65342 30.1467 5.66669H3.70222C3.53273 5.6693 3.36437 5.69471 3.20166 5.74224L16.8489 19.3328L30.5339 5.66669Z" fill="#D14A84"/>
<path d="M31.9316 6.97949L18.1805 20.6739C17.8266 21.0257 17.3479 21.2232 16.8489 21.2232C16.3498 21.2232 15.8711 21.0257 15.5172 20.6739L1.88887 7.08338C1.84697 7.23736 1.82475 7.39604 1.82275 7.5556V26.4445C1.82275 26.9455 2.02176 27.4259 2.376 27.7801C2.73023 28.1344 3.21068 28.3334 3.71164 28.3334H30.1561C30.6571 28.3334 31.1375 28.1344 31.4917 27.7801C31.846 27.4259 32.045 26.9455 32.045 26.4445V7.5556C32.0375 7.35883 31.9992 7.16445 31.9316 6.97949ZM5.00553 26.4445H3.69275V25.0939L10.5589 18.2845L11.8905 19.6162L5.00553 26.4445ZM30.1372 26.4445H28.815L21.93 19.6162L23.2616 18.2845L30.1278 25.0939L30.1372 26.4445Z" fill="#D14A84"/>
</svg>
