<svg width="29" height="41" viewBox="0 0 29 41" fill="none" xmlns="http://www.w3.org/2000/svg">
<path d="M14.3511 40.2546C11.8104 40.2546 9.26968 39.7782 6.72895 38.8255C4.22793 37.8727 1.98494 36.4832 0 34.6571L5.00205 28.6427C6.39151 29.8337 7.93977 30.8063 9.64682 31.5606C11.3539 32.3149 13.0014 32.692 14.5893 32.692C16.4155 32.692 17.7652 32.3546 18.6386 31.6797C19.5517 31.0048 20.0082 30.0917 20.0082 28.9405C20.0082 27.7098 19.4921 26.8166 18.46 26.2608C17.4675 25.6653 16.1177 25.0103 14.4107 24.2957L9.34908 22.152C8.03902 21.5962 6.7885 20.8617 5.59754 19.9487C4.40657 18.9959 3.43395 17.8248 2.67967 16.4353C1.92539 15.0459 1.54825 13.4182 1.54825 11.5524C1.54825 9.40862 2.12389 7.46338 3.27515 5.71663C4.46612 3.96988 6.09377 2.58042 8.15811 1.54826C10.2621 0.516085 12.6639 0 15.3635 0C17.5866 0 19.8097 0.436688 22.0329 1.31006C24.256 2.18344 26.2012 3.4538 27.8686 5.12115L23.4025 10.6591C22.1321 9.66667 20.8617 8.91239 19.5914 8.39631C18.321 7.84052 16.9117 7.56263 15.3635 7.56263C13.8549 7.56263 12.6441 7.88022 11.731 8.5154C10.8576 9.11088 10.4209 9.96441 10.4209 11.076C10.4209 12.2669 10.9767 13.1602 12.0883 13.7556C13.2396 14.3511 14.6489 14.9863 16.3162 15.6612L21.3183 17.6858C23.6605 18.6386 25.5264 19.9487 26.9158 21.616C28.3053 23.2834 29 25.4867 29 28.2259C29 30.3696 28.4244 32.3545 27.2731 34.1807C26.1218 36.0068 24.4545 37.4757 22.271 38.5873C20.0876 39.6988 17.4476 40.2546 14.3511 40.2546Z" fill="white"/>
<path d="M13.3701 28.5146L10.4157 17.4887L21.4416 14.5344L24.396 25.5603L13.3701 28.5146Z" fill="#A63370"/>
<path d="M15.6936 17.8053C18.4234 19.3814 19.3587 22.872 17.7827 25.6018C16.2066 28.3316 12.716 29.2669 9.98617 27.6909C7.25635 26.1148 6.32105 22.6242 7.89711 19.8944C9.47317 17.1646 12.9638 16.2293 15.6936 17.8053Z" fill="#A63370"/>
<path d="M18.9768 11.7924C21.7066 13.3684 22.6419 16.859 21.0659 19.5889C19.4898 22.3187 15.9992 23.254 13.2694 21.6779C10.5396 20.1019 9.60425 16.6113 11.1803 13.8814C12.7564 11.1516 16.247 10.2163 18.9768 11.7924Z" fill="#A63370"/>
</svg>
